<svg width="100" height="24" viewBox="0 0 100 24" fill="none" xmlns="http://www.w3.org/2000/svg">
<g clip-path="url(#clip0_234_1056)">
<path d="M10.6047 16.5065C10.4856 17.0722 10.2297 17.5996 9.83746 18.0877C9.44503 18.5758 8.87748 18.9897 8.13482 19.3291C7.39195 19.6687 6.39709 19.8385 5.14993 19.8385C4.61726 19.8385 4.07432 19.7711 3.52091 19.6368C2.96708 19.5023 2.46258 19.2935 2.00742 19.0108C1.55183 18.7276 1.17353 18.3635 0.87232 17.9179C0.570794 17.4721 0.399345 16.9379 0.357348 16.3156H3.32119C3.46111 16.8813 3.73436 17.274 4.14093 17.4935C4.5473 17.7126 5.01661 17.8223 5.54938 17.8223C6.39018 17.8223 7.00308 17.5677 7.3886 17.0585C7.77391 16.549 7.9595 15.9051 7.94567 15.1271V13.6842H7.90357C7.5811 14.2645 7.12226 14.6921 6.52675 14.9681C5.93103 15.2438 5.30399 15.3819 4.64543 15.3819C3.8326 15.3819 3.13204 15.2371 2.54344 14.9469C1.95484 14.657 1.47139 14.2607 1.09299 13.7584C0.7147 13.2564 0.437785 12.6691 0.262776 11.9971C0.087348 11.3252 0 10.6142 0 9.86415C0 9.15698 0.101485 8.47413 0.304773 7.81624C0.507746 7.15845 0.805606 6.57849 1.19815 6.07613C1.59026 5.57409 2.07738 5.1742 2.65907 4.87708C3.24044 4.57996 3.90979 4.4314 4.66648 4.4314C5.38118 4.4314 6.00822 4.566 6.5478 4.83468C7.08707 5.10356 7.539 5.55612 7.90357 6.19286H7.94567V4.72851H10.7834V14.9998C10.7834 15.4386 10.7236 15.9406 10.6047 16.5065L10.6047 16.5065ZM6.51627 12.8565C6.83843 12.6867 7.10487 12.4606 7.31507 12.1775C7.52527 11.8945 7.68289 11.5726 7.78805 11.2119C7.89309 10.8511 7.94567 10.4726 7.94567 10.0765C7.94567 9.62371 7.90357 9.19569 7.81957 8.79241C7.73547 8.38934 7.59523 8.03216 7.39917 7.72087C7.20269 7.40979 6.94359 7.16205 6.62143 6.97807C6.29885 6.7943 5.89259 6.7022 5.40223 6.7022C4.98183 6.7022 4.62082 6.787 4.31961 6.95681C4.01819 7.12663 3.76588 7.35671 3.56291 7.64643C3.35962 7.93657 3.21247 8.26922 3.12146 8.64395C3.03013 9.01889 2.98489 9.4116 2.98489 9.82165C2.98489 10.2179 3.02333 10.6107 3.10051 10.9996C3.17728 11.3889 3.31071 11.7391 3.49986 12.0499C3.68901 12.3614 3.93765 12.6161 4.24608 12.814C4.55421 13.0124 4.93973 13.1111 5.40223 13.1111C5.82263 13.1111 6.1937 13.0263 6.51627 12.8565V12.8565Z" fill="black"/>
<path d="M16.0172 4.72852V6.76585H16.0592C16.1991 6.42623 16.3884 6.11156 16.6267 5.82141C16.8649 5.53159 17.1381 5.28395 17.4466 5.07872C17.7546 4.8738 18.0841 4.71456 18.4345 4.60121C18.7846 4.48807 19.1492 4.4314 19.5276 4.4314C19.7237 4.4314 19.9408 4.46692 20.1792 4.53755V7.33884C20.0389 7.31061 19.8708 7.28576 19.6748 7.26451C19.4783 7.24326 19.2891 7.23268 19.1072 7.23268C18.5606 7.23268 18.0982 7.32488 17.7198 7.50855C17.3414 7.69253 17.0367 7.94355 16.8054 8.26203C16.5743 8.5803 16.4093 8.95164 16.3115 9.37607C16.2132 9.8005 16.1643 10.2605 16.1643 10.7555V15.7002H13.1794V4.72852H16.0172H16.0172Z" fill="black"/>
<path d="M21.0414 7.8376C21.3075 7.12324 21.6859 6.51483 22.1765 6.01248C22.6669 5.51044 23.2555 5.12112 23.9422 4.84525C24.6289 4.56938 25.3997 4.4314 26.2543 4.4314C27.1089 4.4314 27.8835 4.56938 28.5773 4.84525C29.271 5.12112 29.8626 5.51044 30.3536 6.01248C30.8437 6.51483 31.222 7.12324 31.4884 7.8376C31.7545 8.55217 31.8881 9.34794 31.8881 10.2249C31.8881 11.1023 31.7545 11.8945 31.4884 12.6019C31.222 13.3095 30.8437 13.9143 30.3536 14.4163C29.8626 14.9186 29.271 15.3043 28.5773 15.5729C27.8835 15.8414 27.1089 15.9762 26.2543 15.9762C25.3997 15.9762 24.6289 15.8414 23.9422 15.5729C23.2555 15.3043 22.6669 14.9186 22.1765 14.4163C21.6859 13.9143 21.3075 13.3095 21.0414 12.6019C20.7751 11.8945 20.6421 11.1023 20.6421 10.2249C20.6421 9.34794 20.7751 8.55217 21.0414 7.8376ZM23.7531 11.5088C23.8372 11.9264 23.9808 12.3014 24.1839 12.6336C24.3871 12.9663 24.6569 13.2314 24.9933 13.4294C25.3297 13.6277 25.7499 13.7265 26.2543 13.7265C26.7591 13.7265 27.1827 13.6277 27.5262 13.4294C27.8693 13.2314 28.1429 12.9663 28.346 12.6336C28.5488 12.3014 28.6929 11.9264 28.7771 11.5088C28.8609 11.0918 28.9032 10.6637 28.9032 10.2249C28.9032 9.78654 28.8609 9.35492 28.7771 8.93049C28.6929 8.50607 28.5488 8.13134 28.346 7.80567C28.1429 7.48042 27.8693 7.21513 27.5262 7.00989C27.1827 6.80497 26.7591 6.7022 26.2543 6.7022C25.7499 6.7022 25.3297 6.80497 24.9933 7.00989C24.6569 7.21513 24.3871 7.48042 24.1839 7.80567C23.9808 8.13134 23.8372 8.50607 23.7531 8.93049C23.669 9.35492 23.627 9.78654 23.627 10.2249C23.627 10.6637 23.669 11.0918 23.7531 11.5088Z" fill="black"/>
<path d="M43.1755 15.7002L41.2415 8.33625H41.1996L39.3498 15.7002H36.2598L32.8124 4.72852H35.9655L37.9623 12.1775H38.0044L39.8121 4.72852H42.713L44.5628 12.1561H44.6049L46.6017 4.72852H49.6706L46.2444 15.7002H43.1755Z" fill="black"/>
<path d="M56.8593 3.03087V0.547852H59.8441V3.03087H56.8593ZM59.8441 4.72858V15.7002H56.8593V4.72858H59.8441Z" fill="black"/>
<path d="M65.0366 4.72852V6.25652H65.0996C65.4779 5.61988 65.9683 5.15665 66.5709 4.8665C67.1733 4.57668 67.7902 4.4314 68.4207 4.4314C69.2196 4.4314 69.8744 4.54115 70.3861 4.76034C70.8974 4.97985 71.3005 5.28395 71.5948 5.67285C71.889 6.06217 72.0958 6.53598 72.215 7.0948C72.3337 7.65383 72.3937 8.2726 72.3937 8.95164V15.7002H69.4088V9.50338C69.4088 8.59827 69.2684 7.9224 68.9884 7.47672C68.7079 7.03104 68.2106 6.80825 67.4959 6.80825C66.683 6.80825 66.0944 7.05229 65.7301 7.54038C65.3656 8.02856 65.1836 8.83153 65.1836 9.94916V15.7002H62.1987V4.72852H65.0366Z" fill="black"/>
<path d="M80.6334 4.72857V6.74466H78.4472V12.1775C78.4472 12.6867 78.5314 13.0264 78.6996 13.196C78.8676 13.3658 79.204 13.4508 79.7084 13.4508C79.8766 13.4508 80.0377 13.4438 80.1921 13.4294C80.3461 13.4155 80.4931 13.3943 80.6334 13.3658V15.7002C80.3812 15.7427 80.1008 15.7709 79.7926 15.785C79.4843 15.799 79.1831 15.8064 78.8888 15.8064C78.4263 15.8064 77.9881 15.7745 77.575 15.7108C77.1615 15.6472 76.7973 15.5234 76.4818 15.3395C76.1666 15.1557 75.9177 14.8939 75.7357 14.5543C75.5535 14.2146 75.4624 13.7691 75.4624 13.2173V6.74466H73.6547V4.72857H75.4624V1.43921H78.4472V4.72857H80.6334Z" fill="black"/>
<path d="M82.1252 7.8376C82.3912 7.12324 82.7695 6.51483 83.2603 6.01248C83.7506 5.51044 84.3392 5.12112 85.0261 4.84525C85.7125 4.56938 86.4833 4.4314 87.3381 4.4314C88.1928 4.4314 88.9674 4.56938 89.6609 4.84525C90.3547 5.12112 90.9464 5.51044 91.4372 6.01248C91.9275 6.51483 92.3058 7.12324 92.5723 7.8376C92.8383 8.55217 92.9717 9.34794 92.9717 10.2249C92.9717 11.1023 92.8383 11.8945 92.5723 12.6019C92.3058 13.3095 91.9275 13.9143 91.4372 14.4163C90.9464 14.9186 90.3547 15.3043 89.6609 15.5729C88.9674 15.8414 88.1928 15.9762 87.3381 15.9762C86.4833 15.9762 85.7125 15.8414 85.0261 15.5729C84.3392 15.3043 83.7506 14.9186 83.2603 14.4163C82.7695 13.9143 82.3912 13.3095 82.1252 12.6019C81.8587 11.8945 81.7257 11.1023 81.7257 10.2249C81.7257 9.34794 81.8587 8.55217 82.1252 7.8376ZM84.8367 11.5088C84.9209 11.9264 85.0644 12.3014 85.2678 12.6336C85.4707 12.9663 85.7408 13.2314 86.0769 13.4294C86.4133 13.6277 86.8337 13.7265 87.3381 13.7265C87.8427 13.7265 88.2665 13.6277 88.61 13.4294C88.9531 13.2314 89.2265 12.9663 89.4297 12.6336C89.6326 12.3014 89.7765 11.9264 89.8607 11.5088C89.9447 11.0918 89.9868 10.6637 89.9868 10.2249C89.9868 9.78654 89.9447 9.35492 89.8607 8.93049C89.7765 8.50607 89.6326 8.13134 89.4297 7.80567C89.2265 7.48042 88.9531 7.21513 88.61 7.00989C88.2665 6.80497 87.8427 6.7022 87.3381 6.7022C86.8337 6.7022 86.4133 6.80497 86.0769 7.00989C85.7408 7.21513 85.4707 7.48042 85.2678 7.80567C85.0644 8.13134 84.9209 8.50607 84.8367 8.93049C84.7527 9.35492 84.7106 9.78654 84.7106 10.2249C84.7106 10.6637 84.7527 11.0918 84.8367 11.5088Z" fill="black"/>
<path d="M92.6082 2.12523V1.43921H95.6196V2.12523H94.5181V5.14993H93.7099V2.12523H92.6082Z" fill="black"/>
<path d="M97.1797 1.43921L98.0394 3.99106H98.0499L98.8632 1.43921H100.001V5.14993H99.244V2.52026H99.2338L98.3328 5.14993H97.7101L96.8092 2.54606H96.7989V5.14993H96.0421V1.43921H97.1797H97.1797Z" fill="black"/>
<path d="M92.6082 2.12523V1.43921H95.6196V2.12523H94.5181V5.14993H93.7099V2.12523H92.6082Z" fill="black"/>
<path d="M97.1797 1.43921L98.0394 3.99106H98.0499L98.8632 1.43921H100.001V5.14993H99.244V2.52026H99.2338L98.3328 5.14993H97.7101L96.8092 2.54606H96.7989V5.14993H96.0421V1.43921H97.1797H97.1797Z" fill="black"/>
</g>
<defs>
<clipPath id="clip0_234_1056">
<rect width="100" height="23.0769" fill="white" transform="translate(0 0.547852)"/>
</clipPath>
</defs>
</svg>
