<svg width="127" height="54" viewBox="0 0 127 54" fill="none" xmlns="http://www.w3.org/2000/svg">
<g clip-path="url(#clip0_122_912)">
<path d="M16.9705 21.8507C16.8251 22.5366 16.5129 23.1761 16.0344 23.768C15.5556 24.3598 14.8632 24.8616 13.9572 25.2732C13.0509 25.685 11.8372 25.8909 10.3156 25.8909C9.66577 25.8909 9.00339 25.8091 8.32823 25.6462C7.65256 25.4832 7.03707 25.2301 6.48176 24.8872C5.92594 24.5439 5.46442 24.1023 5.09695 23.5621C4.72908 23.0215 4.51992 22.3738 4.46868 21.6192H8.08456C8.25527 22.3051 8.58863 22.7813 9.08465 23.0474C9.58042 23.3131 10.153 23.4462 10.803 23.4462C11.8287 23.4462 12.5765 23.1374 13.0468 22.52C13.5169 21.9022 13.7433 21.1214 13.7264 20.1781V18.4285H13.6751C13.2817 19.1321 12.7219 19.6506 11.9954 19.9852C11.2686 20.3196 10.5036 20.4871 9.70014 20.4871C8.70849 20.4871 7.85381 20.3114 7.13571 19.9596C6.41762 19.608 5.82782 19.1275 5.36617 18.5185C4.90465 17.9098 4.56681 17.1977 4.3533 16.3828C4.13928 15.5681 4.03271 14.706 4.03271 13.7965C4.03271 12.939 4.15653 12.111 4.40454 11.3133C4.65216 10.5157 5.01555 9.81249 5.49445 9.20336C5.97284 8.59462 6.56712 8.10973 7.27678 7.74945C7.98605 7.38918 8.80265 7.20905 9.72583 7.20905C10.5978 7.20905 11.3627 7.37226 12.021 7.69804C12.6789 8.02408 13.2303 8.57282 13.6751 9.3449H13.7264V7.56931H17.1885V20.0237C17.1885 20.5558 17.1155 21.1645 16.9705 21.8507L16.9705 21.8507ZM11.9826 17.4249C12.3756 17.219 12.7007 16.9448 12.9571 16.6015C13.2135 16.2584 13.4058 15.8681 13.5341 15.4307C13.6623 14.9932 13.7264 14.5342 13.7264 14.054C13.7264 13.505 13.6751 12.986 13.5726 12.497C13.47 12.0082 13.2989 11.5751 13.0597 11.1977C12.82 10.8205 12.5039 10.5201 12.1109 10.297C11.7173 10.0742 11.2217 9.9625 10.6234 9.9625C10.1105 9.9625 9.67011 10.0653 9.30263 10.2712C8.9349 10.4771 8.62709 10.7561 8.37947 11.1074C8.13146 11.4592 7.95193 11.8626 7.8409 12.317C7.72948 12.7716 7.67428 13.2478 7.67428 13.745C7.67428 14.2255 7.72117 14.7017 7.81534 15.1732C7.909 15.6453 8.07178 16.0699 8.30254 16.4469C8.53331 16.8246 8.83664 17.1333 9.21293 17.3733C9.58885 17.6139 10.0592 17.7336 10.6234 17.7336C11.1363 17.7336 11.589 17.6308 11.9826 17.4249V17.4249Z" fill="black"/>
<path d="M23.5739 7.56932V10.0397H23.6251C23.7958 9.62787 24.0267 9.24631 24.3175 8.8945C24.6081 8.54308 24.9414 8.24281 25.3177 7.99395C25.6935 7.74548 26.0955 7.55239 26.523 7.41495C26.9502 7.27777 27.3949 7.20905 27.8566 7.20905C28.0958 7.20905 28.3607 7.25212 28.6515 7.33777V10.7345C28.4804 10.7002 28.2753 10.6701 28.0361 10.6443C27.7964 10.6186 27.5657 10.6057 27.3437 10.6057C26.6769 10.6057 26.1127 10.7175 25.6511 10.9402C25.1894 11.1633 24.8176 11.4677 24.5355 11.8539C24.2535 12.2398 24.0522 12.6901 23.9329 13.2047C23.8131 13.7193 23.7534 14.277 23.7534 14.8773V20.873H20.1118V7.56932H23.5739H23.5739Z" fill="black"/>
<path d="M29.703 11.3392C30.0276 10.473 30.4892 9.73531 31.0878 9.12618C31.6861 8.51743 32.4042 8.04536 33.242 7.71086C34.0797 7.37636 35.0201 7.20905 36.0627 7.20905C37.1054 7.20905 38.0504 7.37636 38.8968 7.71086C39.7431 8.04536 40.4648 8.51743 41.0638 9.12618C41.6618 9.73531 42.1233 10.473 42.4484 11.3392C42.7729 12.2057 42.936 13.1706 42.936 14.234C42.936 15.2979 42.7729 16.2584 42.4484 17.1161C42.1233 17.9741 41.6618 18.7075 41.0638 19.3162C40.4648 19.9252 39.7431 20.3929 38.8968 20.7186C38.0504 21.0442 37.1054 21.2076 36.0627 21.2076C35.0201 21.2076 34.0797 21.0442 33.242 20.7186C32.4042 20.3929 31.6861 19.9252 31.0878 19.3162C30.4892 18.7075 30.0276 17.9741 29.703 17.1161C29.3781 16.2584 29.2158 15.2979 29.2158 14.234C29.2158 13.1706 29.3781 12.2057 29.703 11.3392ZM33.0112 15.7907C33.1138 16.2971 33.289 16.7518 33.5369 17.1546C33.7848 17.5579 34.1139 17.8795 34.5243 18.1195C34.9347 18.36 35.4474 18.4798 36.0627 18.4798C36.6786 18.4798 37.1953 18.36 37.6144 18.1195C38.033 17.8795 38.3668 17.5579 38.6146 17.1546C38.862 16.7518 39.0378 16.2971 39.1406 15.7907C39.2428 15.285 39.2944 14.766 39.2944 14.234C39.2944 13.7024 39.2428 13.179 39.1406 12.6644C39.0378 12.1498 38.862 11.6954 38.6146 11.3005C38.3668 10.9061 38.033 10.5844 37.6144 10.3356C37.1953 10.0871 36.6786 9.96249 36.0627 9.96249C35.4474 9.96249 34.9347 10.0871 34.5243 10.3356C34.1139 10.5844 33.7848 10.9061 33.5369 11.3005C33.289 11.6954 33.1138 12.1498 33.0112 12.6644C32.9086 13.179 32.8574 13.7024 32.8574 14.234C32.8574 14.766 32.9086 15.285 33.0112 15.7907Z" fill="black"/>
<path d="M56.707 20.873L54.3475 11.9439H54.2964L52.0396 20.873H48.2698L44.064 7.56932H47.9107L50.3469 16.6015H50.3982L52.6036 7.56932H56.1427L58.3995 16.5756H58.4508L60.887 7.56932H64.631L60.451 20.873H56.707Z" fill="black"/>
<path d="M73.4014 5.51077V2.5H77.0429V5.51077H73.4014ZM77.0429 7.56932V20.873H73.4014V7.56932H77.0429Z" fill="black"/>
<path d="M83.3772 7.56932V9.42209H83.4541C83.9156 8.65014 84.5139 8.08844 85.2491 7.73663C85.9841 7.38521 86.7366 7.20905 87.5058 7.20905C88.4805 7.20905 89.2794 7.34213 89.9037 7.60791C90.5275 7.87407 91.0191 8.24281 91.3782 8.71437C91.7372 9.18644 91.9894 9.76095 92.1349 10.4385C92.2797 11.1164 92.3528 11.8667 92.3528 12.6901V20.873H88.7113V13.3591C88.7113 12.2616 88.5401 11.442 88.1984 10.9016C87.8562 10.3612 87.2495 10.0911 86.3776 10.0911C85.3858 10.0911 84.6677 10.387 84.2233 10.9788C83.7787 11.5708 83.5566 12.5444 83.5566 13.8996V20.873H79.915V7.56932H83.3772Z" fill="black"/>
<path d="M102.405 7.56931V10.0139H99.7383V16.6015C99.7383 17.219 99.841 17.6308 100.046 17.8364C100.251 18.0423 100.662 18.1454 101.277 18.1454C101.482 18.1454 101.679 18.1369 101.867 18.1195C102.055 18.1026 102.234 18.0769 102.405 18.0423V20.873C102.098 20.9245 101.756 20.9586 101.38 20.9758C101.004 20.9927 100.636 21.0017 100.277 21.0017C99.7128 21.0017 99.1781 20.963 98.6742 20.8858C98.1698 20.8086 97.7253 20.6586 97.3405 20.4355C96.9559 20.2127 96.6523 19.8952 96.4302 19.4834C96.2079 19.0716 96.0967 18.5313 96.0967 17.8623V10.0139H93.8914V7.56931H96.0967V3.58081H99.7383V7.56931H102.405Z" fill="black"/>
<path d="M104.226 11.3392C104.55 10.473 105.012 9.73531 105.611 9.12618C106.209 8.51743 106.927 8.04536 107.765 7.71086C108.602 7.37636 109.543 7.20905 110.586 7.20905C111.628 7.20905 112.573 7.37636 113.419 7.71086C114.266 8.04536 114.988 8.51743 115.587 9.12618C116.185 9.73531 116.646 10.473 116.971 11.3392C117.296 12.2057 117.459 13.1706 117.459 14.234C117.459 15.2979 117.296 16.2584 116.971 17.1161C116.646 17.9741 116.185 18.7075 115.587 19.3162C114.988 19.9252 114.266 20.3929 113.419 20.7186C112.573 21.0442 111.628 21.2076 110.586 21.2076C109.543 21.2076 108.602 21.0442 107.765 20.7186C106.927 20.3929 106.209 19.9252 105.611 19.3162C105.012 18.7075 104.55 17.9741 104.226 17.1161C103.901 16.2584 103.739 15.2979 103.739 14.234C103.739 13.1706 103.901 12.2057 104.226 11.3392ZM107.534 15.7907C107.637 16.2971 107.812 16.7518 108.06 17.1546C108.307 17.5579 108.637 17.8795 109.047 18.1195C109.457 18.36 109.97 18.4798 110.586 18.4798C111.201 18.4798 111.718 18.36 112.137 18.1195C112.556 17.8795 112.889 17.5579 113.137 17.1546C113.385 16.7518 113.561 16.2971 113.663 15.7907C113.766 15.285 113.817 14.766 113.817 14.234C113.817 13.7024 113.766 13.179 113.663 12.6644C113.561 12.1498 113.385 11.6954 113.137 11.3005C112.889 10.9061 112.556 10.5844 112.137 10.3356C111.718 10.0871 111.201 9.96249 110.586 9.96249C109.97 9.96249 109.457 10.0871 109.047 10.3356C108.637 10.5844 108.307 10.9061 108.06 11.3005C107.812 11.6954 107.637 12.1498 107.534 12.6644C107.431 13.179 107.38 13.7024 107.38 14.234C107.38 14.766 107.431 15.285 107.534 15.7907Z" fill="black"/>
<path d="M117.014 4.41264V3.58081H120.688V4.41264H119.344V8.08023H118.358V4.41264H117.014Z" fill="black"/>
<path d="M122.591 3.58081L123.64 6.67505H123.653L124.645 3.58081H126.033V8.08023H125.109V4.89164H125.097L123.998 8.08023H123.238L122.139 4.92292H122.126V8.08023H121.203V3.58081H122.591H122.591Z" fill="black"/>
<path d="M117.014 4.41264V3.58081H120.688V4.41264H119.344V8.08023H118.358V4.41264H117.014Z" fill="black"/>
<path d="M122.591 3.58081L123.64 6.67505H123.653L124.645 3.58081H126.033V8.08023H125.109V4.89164H125.097L123.998 8.08023H123.238L122.139 4.92292H122.126V8.08023H121.203V3.58081H122.591H122.591Z" fill="black"/>
<path d="M10.4828 45.0929C10.4217 45.2772 8.76828 50.5 5.89004 50.5C4.48171 50.5 4.03271 49.7628 4.03271 49.3325C4.03271 48.8615 4.3795 48.3904 4.88982 48.3904C5.48193 48.3904 5.72674 48.923 5.76763 49.2097C5.82897 49.6195 6.03289 49.8036 6.27796 49.8036C7.74762 49.8036 8.74784 46.4242 9.66628 43.782L11.034 39.8088C11.1564 39.4811 11.2177 39.1941 11.2177 39.0098C11.2177 38.8051 11.1564 38.7026 10.9931 38.7026C10.6461 38.7026 9.68672 39.5629 9.44191 39.8088C9.38058 39.8701 9.31925 39.8495 9.27836 39.8088L9.07443 39.5834C9.03354 39.5424 9.0131 39.4811 9.05399 39.4195C9.38058 39.0508 11.2583 37.2689 12.6056 37.2689C12.9322 37.2689 13.0344 37.5148 13.0344 37.6582C13.0344 38.211 12.3403 40.1365 12.0546 40.9147L10.4828 45.0928V45.0929ZM12.0748 33.6026C12.0748 33.0498 12.4832 32.4556 13.2383 32.4556C13.9937 32.4556 14.259 33.0905 14.259 33.4593C14.259 34.0942 13.7078 34.5245 13.1773 34.5245C12.5241 34.5245 12.0748 34.0737 12.0748 33.6026V33.6026Z" fill="black"/>
<path d="M14.1567 43.352C14.1567 40.7714 16.0958 37.2689 18.8105 37.2689C20.1782 37.2689 20.9947 38.2726 20.9947 39.6652C20.9947 41.9183 19.2186 45.9942 16.2591 45.9942C15.1365 45.9942 14.1567 44.9085 14.1567 43.352V43.352ZM20.1782 39.358C20.1984 38.7231 19.8312 38.211 19.1576 38.211C18.3002 38.211 17.2185 38.9893 16.1978 40.6483C15.5037 41.7545 15.0138 43.0038 15.0138 43.9664C15.0138 44.6218 15.4631 45.0111 15.9527 45.0111C18.0758 45.0111 20.1782 40.7098 20.1782 39.358Z" fill="black"/>
<path d="M30.894 37.4738C31.0778 37.4738 31.1184 37.5351 31.0778 37.6582L29.5059 41.9184C28.914 43.5159 28.6485 44.458 28.6485 44.5808C28.6485 44.7651 28.669 44.7651 28.8118 44.8267C29.1182 44.8267 30.2408 43.8025 30.4041 43.5569C30.4448 43.4953 30.5265 43.4748 30.5876 43.5569L30.7918 43.7615C30.8531 43.8231 30.8531 43.8641 30.7918 43.9459C30.7307 44.0279 28.8323 45.9942 27.4239 45.9942C27.1382 45.9942 27.036 45.7688 27.036 45.5231C27.036 45.2772 28.0771 42.7171 28.3424 42.0207L28.22 41.9591C27.3626 43.2087 25.1991 45.9942 23.1783 45.9942C22.7699 45.9942 22.4433 45.6459 22.4229 45.1544C22.4433 44.499 23.076 43.2292 23.8723 41.3242C24.4028 40.0544 24.8725 39.0918 24.8725 38.7231C24.8725 38.5387 24.7294 38.4364 24.5459 38.4364C24.1785 38.4364 23.1578 39.358 22.9536 39.6039C22.8925 39.6652 22.8312 39.6652 22.7699 39.6039L22.5864 39.4195C22.5251 39.3785 22.5251 39.317 22.6066 39.2352C22.7494 39.0508 24.4437 37.2689 25.7501 37.2689C26.1585 37.2689 26.3419 37.6784 26.3419 38.0061C26.3419 38.5182 25.8523 39.7267 25.0154 41.5496C24.4642 42.7581 23.9334 44.069 23.9334 44.5195C23.9334 44.7446 24.0763 44.8677 24.2804 44.8677C25.3622 44.8677 27.5259 42.1845 28.118 41.3242C28.5057 40.7509 28.8323 40.1978 29.0569 39.5834L29.7714 37.6171C29.812 37.4943 29.9143 37.4738 30.0571 37.4738H30.894H30.894Z" fill="black"/>
<path d="M32.4448 45.7893C32.3017 45.7893 32.2201 45.7075 32.261 45.6049L33.4041 42.2868C33.7716 41.1399 34.4043 38.9893 34.4043 38.7026C34.4043 38.5182 34.241 38.3954 34.0573 38.3954C33.6489 38.3954 32.7305 39.317 32.4448 39.6652C32.4039 39.7267 32.3221 39.7062 32.2815 39.6652L32.0773 39.4606C32.0364 39.4195 32.0364 39.358 32.0773 39.2967C32.5059 38.6615 33.7307 37.2689 35.1186 37.2689C35.5269 37.2689 35.6902 37.6171 35.6902 37.9859C35.7107 38.3749 35.3636 39.5218 34.9553 40.8942L35.0575 40.9352C35.6085 39.7883 37.2414 37.2689 38.3845 37.2689C38.9766 37.2689 39.3438 37.6377 39.3438 38.1905C39.3438 38.7231 38.9357 39.1329 38.5478 39.1329C38.364 39.1329 38.2007 39.0918 38.0375 38.928C37.8742 38.7641 37.7722 38.6821 37.5069 38.6821C36.9557 38.6821 35.8126 40.4437 34.9962 41.7953C34.7514 42.1845 34.5063 42.6556 34.2001 43.5771L33.5265 45.6459C33.4856 45.7893 33.4245 45.7893 33.2613 45.7893H32.4448L32.4448 45.7893Z" fill="black"/>
<path d="M40.0166 45.7893C39.792 45.7893 39.7514 45.7483 39.792 45.6049L41.2412 41.8158C41.7314 40.546 42.3028 39.0713 42.3028 38.7231C42.3028 38.5182 42.221 38.3749 41.9966 38.3749C41.6087 38.3749 40.6289 39.358 40.2819 39.7472C40.2208 39.8088 40.1595 39.8088 40.078 39.7267L39.8942 39.5424C39.8124 39.4606 39.792 39.4195 39.8533 39.3375C40.1595 38.969 41.67 37.2689 43.1397 37.2689C43.6091 37.2689 43.7929 37.6172 43.7929 37.8833C43.7929 38.5182 42.9151 40.4642 42.7518 40.9352L42.8335 40.976C43.4458 39.9929 45.6706 37.2689 47.4873 37.2689C48.0996 37.2689 48.508 37.5761 48.508 38.1087C48.508 39.0098 48.0385 40.075 47.3649 41.734C46.8137 43.0859 46.3238 44.2326 46.3238 44.5603C46.3238 44.6834 46.4056 44.8267 46.5689 44.8267C46.875 44.8267 47.773 44.069 48.0385 43.782C48.1201 43.7207 48.2018 43.7413 48.2632 43.8231L48.406 43.9869C48.4875 44.069 48.508 44.1097 48.4262 44.2123C48.1814 44.54 46.528 45.9942 45.1603 45.9942C44.895 45.9942 44.6707 45.8916 44.6707 45.5844C44.6707 45.1954 45.4054 43.5772 46.0381 41.8158C46.3238 41.017 47.0588 39.317 47.0588 38.8664C47.0588 38.5798 46.9159 38.3954 46.5484 38.3954C45.7524 38.3954 43.7315 40.2798 42.8335 41.734C42.4661 42.3279 42.1395 42.8604 41.6087 44.2941L41.0984 45.6665C41.0577 45.7483 41.0168 45.7893 40.8127 45.7893H40.0166L40.0166 45.7893Z" fill="black"/>
<path d="M58.428 37.2689C58.5098 37.2689 58.5303 37.3712 58.4894 37.4533C58.1015 38.2931 57.0603 41.1196 56.9584 41.4473C56.836 41.7953 55.9786 44.3351 55.9786 44.5195C55.9786 44.7039 56.0806 44.7651 56.2032 44.7651C56.4481 44.7651 57.4892 43.7002 57.632 43.5159C57.6933 43.4543 57.7544 43.4135 57.7953 43.4748L57.979 43.6797C58.0401 43.7413 58.0606 43.782 58.0199 43.8436C57.7953 44.2531 56.0195 45.9942 54.856 45.9942C54.6112 45.9942 54.4274 45.9121 54.4274 45.6459C54.4274 45.3388 54.6314 44.7039 55.4072 42.5327L55.305 42.4917C54.4476 43.8025 52.3861 45.9942 50.9369 45.9942C50.4675 45.9942 49.8347 45.6049 49.8347 44.6833C49.8347 41.693 53.1821 37.2689 55.6725 37.2689C56.5298 37.2689 56.9175 37.6377 57.1217 37.9654L57.5096 37.4123C57.5707 37.3305 57.632 37.2689 57.7135 37.2689H58.428ZM55.8562 40.8327C56.1419 40.2388 56.3461 39.7267 56.3461 39.1329C56.3461 38.5797 56.1419 37.9243 55.3868 37.9243C53.5087 37.9243 51.3248 42.2461 51.3248 44.1918C51.3248 44.6628 51.5287 44.9085 51.8758 44.9085C52.8964 44.9085 55.4887 41.5906 55.8562 40.8327Z" fill="black"/>
<path d="M63.4693 33.9508C63.7754 33.1726 63.755 32.6605 63.1631 32.6605H62.5713C62.4284 32.6605 62.408 32.5787 62.4486 32.4762L62.5713 32.1074C62.6119 31.9846 62.6528 31.9641 62.7752 31.9641H65.3064C65.4902 31.9641 65.5512 32.0872 65.4902 32.2715L61.2445 43.1061C61.0607 43.5771 60.5709 44.7039 60.9994 44.7039C61.326 44.7039 62.2649 43.9048 62.51 43.6387C62.5915 43.5569 62.6324 43.5771 62.6937 43.6387L62.9181 43.8846C62.959 43.9254 62.9794 44.0074 62.8979 44.0892C62.7957 44.2531 60.8975 45.9942 59.5911 45.9942C59.3256 45.9942 59.1421 45.8711 59.1421 45.4C59.1421 45.0928 59.6522 43.8025 59.8972 43.1881L63.4693 33.9508V33.9508Z" fill="black"/>
</g>
<mask id="mask0_122_912" style="mask-type:alpha" maskUnits="userSpaceOnUse" x="4" y="2" width="114" height="24">
<path d="M16.9705 21.8507C16.8251 22.5366 16.5129 23.1761 16.0344 23.768C15.5556 24.3598 14.8632 24.8616 13.9572 25.2732C13.0509 25.685 11.8372 25.8909 10.3156 25.8909C9.66577 25.8909 9.00339 25.8091 8.32823 25.6462C7.65256 25.4832 7.03707 25.2301 6.48176 24.8872C5.92594 24.5439 5.46442 24.1023 5.09695 23.5621C4.72908 23.0215 4.51992 22.3738 4.46868 21.6192H8.08456C8.25527 22.3051 8.58863 22.7813 9.08465 23.0474C9.58042 23.3131 10.153 23.4462 10.803 23.4462C11.8287 23.4462 12.5765 23.1374 13.0468 22.52C13.5169 21.9022 13.7433 21.1214 13.7264 20.1781V18.4285H13.6751C13.2817 19.1321 12.7219 19.6506 11.9954 19.9852C11.2686 20.3196 10.5036 20.4871 9.70014 20.4871C8.70849 20.4871 7.85381 20.3114 7.13571 19.9596C6.41762 19.608 5.82782 19.1275 5.36617 18.5185C4.90465 17.9098 4.56681 17.1977 4.3533 16.3828C4.13928 15.5681 4.03271 14.706 4.03271 13.7965C4.03271 12.939 4.15653 12.111 4.40454 11.3133C4.65216 10.5157 5.01555 9.81249 5.49445 9.20336C5.97284 8.59462 6.56712 8.10973 7.27678 7.74945C7.98605 7.38918 8.80265 7.20905 9.72583 7.20905C10.5978 7.20905 11.3627 7.37226 12.021 7.69804C12.6789 8.02408 13.2303 8.57282 13.6751 9.3449H13.7264V7.56931H17.1885V20.0237C17.1885 20.5558 17.1155 21.1645 16.9705 21.8507L16.9705 21.8507ZM11.9826 17.4249C12.3756 17.219 12.7007 16.9448 12.9571 16.6015C13.2135 16.2584 13.4058 15.8681 13.5341 15.4307C13.6623 14.9932 13.7264 14.5342 13.7264 14.054C13.7264 13.505 13.6751 12.986 13.5726 12.497C13.47 12.0082 13.2989 11.5751 13.0597 11.1977C12.82 10.8205 12.5039 10.5201 12.1109 10.297C11.7173 10.0742 11.2217 9.9625 10.6234 9.9625C10.1105 9.9625 9.67011 10.0653 9.30263 10.2712C8.9349 10.4771 8.62709 10.7561 8.37947 11.1074C8.13146 11.4592 7.95193 11.8626 7.8409 12.317C7.72948 12.7716 7.67428 13.2478 7.67428 13.745C7.67428 14.2255 7.72117 14.7017 7.81534 15.1732C7.909 15.6453 8.07178 16.0699 8.30254 16.4469C8.53331 16.8246 8.83664 17.1333 9.21293 17.3733C9.58885 17.6139 10.0592 17.7336 10.6234 17.7336C11.1363 17.7336 11.589 17.6308 11.9826 17.4249V17.4249Z" fill="black"/>
<path d="M23.5739 7.56932V10.0397H23.6251C23.7958 9.62787 24.0267 9.24631 24.3175 8.8945C24.6081 8.54308 24.9414 8.24281 25.3177 7.99395C25.6935 7.74548 26.0955 7.55239 26.523 7.41495C26.9502 7.27777 27.3949 7.20905 27.8566 7.20905C28.0958 7.20905 28.3607 7.25212 28.6515 7.33777V10.7345C28.4804 10.7002 28.2753 10.6701 28.0361 10.6443C27.7964 10.6186 27.5657 10.6057 27.3437 10.6057C26.6769 10.6057 26.1127 10.7175 25.6511 10.9402C25.1894 11.1633 24.8176 11.4677 24.5355 11.8539C24.2535 12.2398 24.0522 12.6901 23.9329 13.2047C23.8131 13.7193 23.7534 14.277 23.7534 14.8773V20.873H20.1118V7.56932H23.5739H23.5739Z" fill="black"/>
<path d="M29.703 11.3392C30.0276 10.473 30.4892 9.73531 31.0878 9.12618C31.6861 8.51743 32.4042 8.04536 33.242 7.71086C34.0797 7.37636 35.0201 7.20905 36.0627 7.20905C37.1054 7.20905 38.0504 7.37636 38.8968 7.71086C39.7431 8.04536 40.4648 8.51743 41.0638 9.12618C41.6618 9.73531 42.1233 10.473 42.4484 11.3392C42.7729 12.2057 42.936 13.1706 42.936 14.234C42.936 15.2979 42.7729 16.2584 42.4484 17.1161C42.1233 17.9741 41.6618 18.7075 41.0638 19.3162C40.4648 19.9252 39.7431 20.3929 38.8968 20.7186C38.0504 21.0442 37.1054 21.2076 36.0627 21.2076C35.0201 21.2076 34.0797 21.0442 33.242 20.7186C32.4042 20.3929 31.6861 19.9252 31.0878 19.3162C30.4892 18.7075 30.0276 17.9741 29.703 17.1161C29.3781 16.2584 29.2158 15.2979 29.2158 14.234C29.2158 13.1706 29.3781 12.2057 29.703 11.3392ZM33.0112 15.7907C33.1138 16.2971 33.289 16.7518 33.5369 17.1546C33.7848 17.5579 34.1139 17.8795 34.5243 18.1195C34.9347 18.36 35.4474 18.4798 36.0627 18.4798C36.6786 18.4798 37.1953 18.36 37.6144 18.1195C38.033 17.8795 38.3668 17.5579 38.6146 17.1546C38.862 16.7518 39.0378 16.2971 39.1406 15.7907C39.2428 15.285 39.2944 14.766 39.2944 14.234C39.2944 13.7024 39.2428 13.179 39.1406 12.6644C39.0378 12.1498 38.862 11.6954 38.6146 11.3005C38.3668 10.9061 38.033 10.5844 37.6144 10.3356C37.1953 10.0871 36.6786 9.96249 36.0627 9.96249C35.4474 9.96249 34.9347 10.0871 34.5243 10.3356C34.1139 10.5844 33.7848 10.9061 33.5369 11.3005C33.289 11.6954 33.1138 12.1498 33.0112 12.6644C32.9086 13.179 32.8574 13.7024 32.8574 14.234C32.8574 14.766 32.9086 15.285 33.0112 15.7907Z" fill="black"/>
<path d="M56.707 20.873L54.3475 11.9439H54.2964L52.0396 20.873H48.2698L44.064 7.56932H47.9107L50.3469 16.6015H50.3982L52.6036 7.56932H56.1427L58.3995 16.5756H58.4508L60.887 7.56932H64.631L60.451 20.873H56.707Z" fill="black"/>
<path d="M73.4014 5.51077V2.5H77.0429V5.51077H73.4014ZM77.0429 7.56932V20.873H73.4014V7.56932H77.0429Z" fill="black"/>
<path d="M83.3772 7.56932V9.42209H83.4541C83.9156 8.65014 84.5139 8.08844 85.2491 7.73663C85.9841 7.38521 86.7366 7.20905 87.5058 7.20905C88.4805 7.20905 89.2794 7.34213 89.9037 7.60791C90.5275 7.87407 91.0191 8.24281 91.3782 8.71437C91.7372 9.18644 91.9894 9.76095 92.1349 10.4385C92.2797 11.1164 92.3528 11.8667 92.3528 12.6901V20.873H88.7113V13.3591C88.7113 12.2616 88.5401 11.442 88.1984 10.9016C87.8562 10.3612 87.2495 10.0911 86.3776 10.0911C85.3858 10.0911 84.6677 10.387 84.2233 10.9788C83.7787 11.5708 83.5566 12.5444 83.5566 13.8996V20.873H79.915V7.56932H83.3772Z" fill="black"/>
<path d="M102.405 7.56931V10.0139H99.7383V16.6015C99.7383 17.219 99.841 17.6308 100.046 17.8364C100.251 18.0423 100.662 18.1454 101.277 18.1454C101.482 18.1454 101.679 18.1369 101.867 18.1195C102.055 18.1026 102.234 18.0769 102.405 18.0423V20.873C102.098 20.9245 101.756 20.9586 101.38 20.9758C101.004 20.9927 100.636 21.0017 100.277 21.0017C99.7128 21.0017 99.1781 20.963 98.6742 20.8858C98.1698 20.8086 97.7253 20.6586 97.3405 20.4355C96.9559 20.2127 96.6523 19.8952 96.4302 19.4834C96.2079 19.0716 96.0967 18.5313 96.0967 17.8623V10.0139H93.8914V7.56931H96.0967V3.58081H99.7383V7.56931H102.405Z" fill="black"/>
<path d="M104.226 11.3392C104.55 10.473 105.012 9.73531 105.611 9.12618C106.209 8.51743 106.927 8.04536 107.765 7.71086C108.602 7.37636 109.543 7.20905 110.586 7.20905C111.628 7.20905 112.573 7.37636 113.419 7.71086C114.266 8.04536 114.988 8.51743 115.587 9.12618C116.185 9.73531 116.646 10.473 116.971 11.3392C117.296 12.2057 117.459 13.1706 117.459 14.234C117.459 15.2979 117.296 16.2584 116.971 17.1161C116.646 17.9741 116.185 18.7075 115.587 19.3162C114.988 19.9252 114.266 20.3929 113.419 20.7186C112.573 21.0442 111.628 21.2076 110.586 21.2076C109.543 21.2076 108.602 21.0442 107.765 20.7186C106.927 20.3929 106.209 19.9252 105.611 19.3162C105.012 18.7075 104.55 17.9741 104.226 17.1161C103.901 16.2584 103.739 15.2979 103.739 14.234C103.739 13.1706 103.901 12.2057 104.226 11.3392ZM107.534 15.7907C107.637 16.2971 107.812 16.7518 108.06 17.1546C108.307 17.5579 108.637 17.8795 109.047 18.1195C109.457 18.36 109.97 18.4798 110.586 18.4798C111.201 18.4798 111.718 18.36 112.137 18.1195C112.556 17.8795 112.889 17.5579 113.137 17.1546C113.385 16.7518 113.561 16.2971 113.663 15.7907C113.766 15.285 113.817 14.766 113.817 14.234C113.817 13.7024 113.766 13.179 113.663 12.6644C113.561 12.1498 113.385 11.6954 113.137 11.3005C112.889 10.9061 112.556 10.5844 112.137 10.3356C111.718 10.0871 111.201 9.96249 110.586 9.96249C109.97 9.96249 109.457 10.0871 109.047 10.3356C108.637 10.5844 108.307 10.9061 108.06 11.3005C107.812 11.6954 107.637 12.1498 107.534 12.6644C107.431 13.179 107.38 13.7024 107.38 14.234C107.38 14.766 107.431 15.285 107.534 15.7907Z" fill="black"/>
</mask>
<g mask="url(#mask0_122_912)">
<g opacity="0.82" filter="url(#filter0_f_122_912)">
<rect x="-54.5498" y="-80.2868" width="91.0625" height="144" transform="rotate(31.3903 -54.5498 -80.2868)" fill="url(#paint0_diamond_122_912)"/>
</g>
</g>
<defs>
<filter id="filter0_f_122_912" x="-133.554" y="-84.2868" width="160.739" height="178.355" filterUnits="userSpaceOnUse" color-interpolation-filters="sRGB">
<feFlood flood-opacity="0" result="BackgroundImageFix"/>
<feBlend mode="normal" in="SourceGraphic" in2="BackgroundImageFix" result="shape"/>
<feGaussianBlur stdDeviation="2" result="effect1_foregroundBlur_122_912"/>
</filter>
<radialGradient id="paint0_diamond_122_912" cx="0" cy="0" r="1" gradientUnits="userSpaceOnUse" gradientTransform="translate(10.2459 -4.28369) rotate(105.818) scale(70.6732 41.5521)">
<stop offset="0.212245" stop-color="#C2C2C2"/>
<stop offset="1" stop-color="white" stop-opacity="0"/>
</radialGradient>
<clipPath id="clip0_122_912">
<rect width="122" height="48" fill="white" transform="translate(4.03271 2.5)"/>
</clipPath>
</defs>
</svg>
