<svg width="61" height="28" viewBox="0 0 61 28" fill="none" xmlns="http://www.w3.org/2000/svg">
<g clip-path="url(#clip0_227_3568)">
<path d="M18.637 7.87139C18.4091 8.0714 18.1782 8.2692 17.9529 8.47268C17.1552 9.19324 16.5557 10.0324 16.3446 11.0776C16.0522 12.5254 16.3636 13.8532 17.2825 15.0441C17.742 15.6395 18.2905 16.1338 19.0202 16.4179C19.1052 16.451 19.1918 16.4805 19.2968 16.5186C19.2017 16.7655 19.1177 17.0086 19.0158 17.2445C18.4211 18.6205 17.6481 19.8932 16.5937 20.9976C16.3975 21.2032 16.1758 21.3896 15.949 21.5649C15.1784 22.1606 14.3152 22.3899 13.3425 22.1191C12.8569 21.9839 12.3766 21.8319 11.8934 21.6891C11.3953 21.542 10.8915 21.424 10.3662 21.412C9.71605 21.3972 9.11387 21.5834 8.51385 21.7947C8.05756 21.9554 7.59908 22.1217 7.12747 22.2288C6.38551 22.3972 5.71453 22.1788 5.0986 21.7808C4.47745 21.3794 3.98644 20.8525 3.56111 20.2723C2.49496 18.8181 1.68278 17.2449 1.1848 15.5297C0.741902 14.0041 0.617688 12.4565 0.866687 10.8894C1.08632 9.50712 1.62564 8.25999 2.64428 7.22932C3.69954 6.16161 4.99782 5.72281 6.52088 5.86702C7.27908 5.9388 8.00327 6.1488 8.73023 6.35075C9.03318 6.43491 9.34245 6.4982 9.64848 6.57233C10.0861 6.67833 10.5183 6.63021 10.9415 6.51158C11.5382 6.34434 12.1279 6.15471 12.724 5.9856C13.6102 5.73416 14.5093 5.66223 15.4236 5.83133C16.6067 6.05014 17.5414 6.65875 18.3243 7.50804C18.4225 7.61455 18.5185 7.72283 18.6149 7.8308C18.6237 7.84057 18.6278 7.85407 18.637 7.87139H18.637Z" fill="#000100"/>
<path d="M14.1899 0.911133C14.2025 1.15942 14.2388 1.39341 14.222 1.62386C14.1302 2.88119 13.6131 3.96213 12.7045 4.87269C12.2943 5.28378 11.8419 5.64482 11.2819 5.85606C10.8055 6.03578 10.299 6.07469 9.79365 6.10991C9.78594 6.11045 9.77756 6.10223 9.76953 6.09803C9.83977 3.29119 11.3231 1.47553 14.1899 0.911133Z" fill="#000100"/>
<path d="M24.9534 4.24817C26.1262 4.06145 27.6621 3.90137 29.617 3.90137C32.0186 3.90137 33.778 4.43488 34.8949 5.39528C35.9283 6.24896 36.5426 7.55616 36.5426 9.15679C36.5426 10.7842 36.04 12.0646 35.0905 12.9984C33.8058 14.3056 31.7114 14.9725 29.3377 14.9725C28.6116 14.9725 27.9414 14.9458 27.3829 14.8124V22.0153H24.9534V4.24817H24.9534ZM27.3829 12.9183C27.9135 13.0518 28.5838 13.105 29.3935 13.105C32.3258 13.105 34.113 11.7446 34.113 9.26352C34.113 6.88919 32.3537 5.74208 29.6728 5.74208C28.6116 5.74208 27.8017 5.82207 27.3829 5.92879V12.9183Z" fill="#000100"/>
<path d="M45.3091 22.0154L45.1136 20.388H45.0298C44.2759 21.4018 42.8236 22.3088 40.8968 22.3088C38.16 22.3088 36.7637 20.4681 36.7637 18.6007C36.7637 15.4794 39.668 13.7721 44.8902 13.7988V13.532C44.8902 12.4649 44.583 10.544 41.8183 10.544C40.5616 10.544 39.2491 10.9176 38.2996 11.5045L37.7411 9.95718C38.8582 9.26358 40.4779 8.81006 42.1813 8.81006C46.3144 8.81006 47.3198 11.5044 47.3198 14.0922V18.9209C47.3198 20.0412 47.3756 21.1351 47.5431 22.0154H45.3091ZM44.9461 15.426C42.2652 15.3727 39.2212 15.8262 39.2212 18.3339C39.2212 19.8545 40.2823 20.5749 41.5391 20.5749C43.2984 20.5749 44.4154 19.5077 44.8064 18.414C44.8902 18.1739 44.9461 17.9071 44.9461 17.667V15.426Z" fill="#000100"/>
<path d="M50.5842 9.10352L53.5442 16.7333C53.8515 17.5869 54.1866 18.6007 54.4101 19.3744H54.4658C54.7171 18.6007 54.9965 17.6137 55.3315 16.6799L58.0125 9.10352H60.6096L56.9234 18.3073C55.164 22.7357 53.9632 25.0033 52.2876 26.3905C51.0868 27.4043 49.8861 27.8045 49.2718 27.9112L48.6573 25.937C49.2718 25.7503 50.0815 25.3768 50.8074 24.7899C51.4777 24.283 52.3155 23.376 52.8741 22.1755C52.9858 21.9354 53.0695 21.7486 53.0695 21.6153C53.0695 21.4819 53.0137 21.2951 52.902 21.0017L47.9033 9.10352H50.5842Z" fill="#000100"/>
</g>
<defs>
<clipPath id="clip0_227_3568">
<rect width="59.8696" height="27" fill="white" transform="translate(0.73999 0.911133)"/>
</clipPath>
</defs>
</svg>
