<svg width="84" height="23" viewBox="0 0 84 23" fill="none" xmlns="http://www.w3.org/2000/svg">
<g clip-path="url(#clip0_227_3559)">
<path fill-rule="evenodd" clip-rule="evenodd" d="M65.2894 3.59176C63.2097 3.59176 61.5656 4.14056 60.3081 4.39033L59.9205 7.53357C60.5495 7.23404 62.5322 6.68557 64.1773 6.63537C65.8219 6.58538 66.7889 6.93434 66.4509 8.33188C61.5656 8.33188 58.2759 9.32951 57.5989 12.4735C56.6308 17.8622 62.5817 17.7126 64.9513 15.3674L64.6608 16.6648H69.0141L70.9011 8.08231C71.6742 4.43952 68.3365 3.54208 65.2894 3.59177V3.59176ZM65.5793 12.3736C65.3379 13.5208 64.4193 14.0204 63.3067 14.0706C62.3397 14.1198 61.4681 13.2713 62.0972 12.2737C62.5817 11.4256 63.9358 11.2258 64.7578 11.2258H65.8219C65.7249 11.6249 65.6754 11.9749 65.5793 12.3736Z" fill="#187FAE"/>
<path fill-rule="evenodd" clip-rule="evenodd" d="M74.6249 0.197754L71.0234 16.6648H75.4455L79.0915 0.197754H74.6249Z" fill="#187FAE"/>
<path fill-rule="evenodd" clip-rule="evenodd" d="M54.3081 0.248535H46.2124L42.6248 16.6649H47.3269L48.5394 11.2259H51.8846C55.1807 11.2259 57.8958 9.23016 58.6233 5.83689C59.4468 1.99499 56.6352 0.248535 54.3081 0.248535ZM54.1637 5.83689C53.8722 7.08455 52.6116 8.08239 51.3991 8.08239H49.218L50.188 3.59185H52.5151C53.7271 3.59185 54.4541 4.58974 54.1637 5.8369V5.83689Z" fill="#187FAE"/>
<path fill-rule="evenodd" clip-rule="evenodd" d="M22.8921 3.59176C20.8375 3.59176 19.2124 4.14056 18.018 4.39033L17.6359 7.53357C18.2092 7.23404 20.1688 6.68557 21.7926 6.63537C23.4177 6.58538 24.3734 6.93434 24.0863 8.33188C19.2607 8.33188 16.0116 9.32951 15.3425 12.4735C14.3866 17.8622 20.2637 17.7126 22.5568 15.3674L22.2707 16.6648H26.6188L28.4822 8.08231C29.2468 4.43952 25.9019 3.54208 22.8921 3.59177V3.59176ZM23.2262 12.3736C22.9874 13.5208 22.0314 14.0204 20.9328 14.0706C19.9771 14.1198 19.1649 13.2713 19.786 12.2737C20.2637 11.4256 21.6014 11.2258 22.3663 11.2258H23.4652C23.3697 11.6249 23.2742 11.9749 23.2262 12.3736Z" fill="#195A7F"/>
<path fill-rule="evenodd" clip-rule="evenodd" d="M30.3767 3.82764H34.7245L35.4255 11.473L39.6798 3.82764H44.1669L33.8359 22.125H28.9741L32.1527 16.7456L30.3767 3.82764Z" fill="#195A7F"/>
<path fill-rule="evenodd" clip-rule="evenodd" d="M12.0776 0.248535H3.9608L0.364258 16.6649H5.12778L6.29406 11.2259H9.69584C12.9524 11.2259 15.6746 9.23016 16.4034 5.83689C17.2294 1.99499 14.4591 0.248535 12.0776 0.248535ZM11.9318 5.83689C11.6403 7.08455 10.4254 8.08239 9.21008 8.08239H6.97432L7.9951 3.59185H10.3279C11.4946 3.59185 12.2721 4.58974 11.9318 5.8369V5.83689Z" fill="#195A7F"/>
<path d="M80.0461 2.32624V0.385105H79.3176V0.125H81.0721V0.385105H80.3401V2.32624H80.0461Z" fill="#195A7F"/>
<path d="M81.3625 2.32624V0.125H81.801L82.3262 1.68296C82.3747 1.8279 82.4098 1.93641 82.4321 2.00853C82.4573 1.92855 82.4969 1.81092 82.5499 1.6559L83.0814 0.125H83.4753V2.32624H83.1937V0.483271L82.5479 2.32624H82.2841L81.6442 0.453294V2.32624H81.3625Z" fill="#195A7F"/>
</g>
<defs>
<clipPath id="clip0_227_3559">
<rect width="83.1111" height="22" fill="white" transform="translate(0.364258 0.125)"/>
</clipPath>
</defs>
</svg>
