<svg width="141" height="56" viewBox="0 0 141 56" fill="none" xmlns="http://www.w3.org/2000/svg">
<g clip-path="url(#clip0_234_1304)">
<path d="M14.9527 22.5758C14.7846 23.3761 14.4239 24.1222 13.8708 24.8126C13.3175 25.5031 12.5172 26.0885 11.4701 26.5687C10.4226 27.0491 9.0199 27.2894 7.2614 27.2894C6.51033 27.2894 5.74479 27.1939 4.96448 27.004C4.18359 26.8137 3.47224 26.5184 2.83046 26.1185C2.18808 25.7179 1.65468 25.2027 1.22997 24.5724C0.80482 23.9418 0.563077 23.1861 0.50386 22.3057H4.68287C4.88017 23.1059 5.26545 23.6615 5.83872 23.972C6.41169 24.2819 7.07341 24.4372 7.82463 24.4372C9.01015 24.4372 9.87434 24.077 10.4179 23.3566C10.9612 22.636 11.2229 21.725 11.2034 20.6244V18.5833H11.144C10.6893 19.4042 10.0424 20.009 9.20272 20.3995C8.36275 20.7896 7.47863 20.9849 6.55006 20.9849C5.40396 20.9849 4.41618 20.78 3.58625 20.3695C2.75633 19.9594 2.07467 19.3988 1.54112 18.6883C1.00773 17.9781 0.617276 17.1473 0.370513 16.1966C0.123161 15.2462 0 14.2404 0 13.1793C0 12.1789 0.143094 11.2129 0.42973 10.2822C0.715922 9.35169 1.1359 8.53125 1.68939 7.8206C2.24227 7.1104 2.9291 6.54469 3.74928 6.12437C4.56902 5.70406 5.5128 5.4939 6.57974 5.4939C7.58747 5.4939 8.47159 5.68431 9.2324 6.06439C9.99277 6.44477 10.63 7.08497 11.144 7.98573H11.2034V5.91421H15.2046V20.4443C15.2046 21.0651 15.1203 21.7753 14.9527 22.5758L14.9527 22.5758ZM9.18795 17.4124C9.64219 17.1721 10.0179 16.8523 10.3143 16.4518C10.6106 16.0515 10.8329 15.5962 10.9811 15.0858C11.1293 14.5754 11.2034 14.04 11.2034 13.4796C11.2034 12.8391 11.144 12.2336 11.0256 11.6631C10.907 11.0929 10.7093 10.5877 10.4328 10.1473C10.1558 9.70725 9.79046 9.35678 9.33621 9.09651C8.88137 8.83654 8.30855 8.70626 7.61714 8.70626C7.02438 8.70626 6.51535 8.82622 6.09064 9.06645C5.66564 9.30667 5.3099 9.63215 5.0237 10.042C4.73707 10.4524 4.52959 10.923 4.40126 11.4531C4.27249 11.9835 4.20869 12.5391 4.20869 13.1191C4.20869 13.6798 4.26289 14.2353 4.37172 14.7855C4.47997 15.3362 4.6681 15.8316 4.9348 16.2714C5.2015 16.712 5.55208 17.0722 5.98698 17.3522C6.42143 17.6328 6.96502 17.7725 7.61714 17.7725C8.2099 17.7725 8.73311 17.6526 9.18795 17.4124V17.4124Z" fill="#F9F5F0"/>
<path d="M22.5845 5.91422V8.7963H22.6437C22.841 8.31586 23.1078 7.87071 23.4439 7.46026C23.7797 7.05027 24.165 6.69995 24.5999 6.40962C25.0342 6.11974 25.4988 5.89447 25.9929 5.73412C26.4866 5.57407 27.0006 5.4939 27.5342 5.4939C27.8106 5.4939 28.1168 5.54415 28.4529 5.64407V9.60687C28.2551 9.56693 28.0181 9.53178 27.7417 9.50172C27.4646 9.47165 27.1979 9.4567 26.9414 9.4567C26.1707 9.4567 25.5187 9.58713 24.9852 9.84695C24.4516 10.1072 24.0219 10.4623 23.6959 10.9128C23.3699 11.3631 23.1374 11.8884 22.9994 12.4888C22.8609 13.0892 22.7919 13.7399 22.7919 14.4402V21.4351H18.5833V5.91422H22.5845H22.5845Z" fill="#F9F5F0"/>
<path d="M29.6681 10.3124C30.0431 9.30188 30.5767 8.4412 31.2685 7.73055C31.96 7.02035 32.7899 6.4696 33.7582 6.07935C34.7263 5.68909 35.8132 5.4939 37.0182 5.4939C38.2232 5.4939 39.3154 5.6891 40.2936 6.07935C41.2718 6.4696 42.1059 7.02035 42.7982 7.73055C43.4893 8.4412 44.0227 9.30188 44.3983 10.3124C44.7734 11.3233 44.9619 12.449 44.9619 13.6896C44.9619 14.9308 44.7734 16.0515 44.3983 17.0522C44.0227 18.0531 43.4893 18.9087 42.7982 19.6189C42.1059 20.3294 41.2718 20.8751 40.2936 21.255C39.3154 21.635 38.2232 21.8255 37.0182 21.8255C35.8132 21.8255 34.7263 21.635 33.7582 21.255C32.7899 20.8751 31.96 20.3294 31.2685 19.6189C30.5767 18.9087 30.0431 18.0531 29.6681 17.0522C29.2925 16.0515 29.105 14.9308 29.105 13.6896C29.105 12.449 29.2925 11.3233 29.6681 10.3124ZM33.4915 15.5058C33.6101 16.0967 33.8125 16.6271 34.099 17.097C34.3855 17.5676 34.7659 17.9428 35.2402 18.2228C35.7146 18.5034 36.307 18.6431 37.0182 18.6431C37.73 18.6431 38.3272 18.5034 38.8116 18.2228C39.2953 17.9428 39.6811 17.5676 39.9676 17.097C40.2534 16.6271 40.4566 16.0967 40.5754 15.5058C40.6935 14.9159 40.7532 14.3104 40.7532 13.6896C40.7532 13.0695 40.6935 12.4589 40.5754 11.8585C40.4566 11.2581 40.2534 10.728 39.9676 10.2673C39.6811 9.80716 39.2953 9.43186 38.8116 9.14153C38.3272 8.85164 37.73 8.70625 37.0182 8.70625C36.307 8.70625 35.7146 8.85164 35.2402 9.14153C34.7659 9.43186 34.3855 9.80716 34.099 10.2673C33.8125 10.728 33.6101 11.2581 33.4915 11.8585C33.3729 12.4589 33.3137 13.0695 33.3137 13.6896C33.3137 14.3104 33.3729 14.9159 33.4915 15.5058Z" fill="#F9F5F0"/>
<path d="M60.8775 21.4352L58.1506 11.0179H58.0915L55.4833 21.4352H51.1263L46.2655 5.91431H50.7114L53.5269 16.4519H53.5863L56.1351 5.91431H60.2254L62.8336 16.4216H62.8929L65.7085 5.91431H70.0356L65.2046 21.4352H60.8775Z" fill="#F9F5F0"/>
<path d="M80.1721 3.51257V0H84.3808V3.51257H80.1721ZM84.3808 5.91421V21.4351H80.1721V5.91421H84.3808Z" fill="#F9F5F0"/>
<path d="M91.7016 5.91422V8.07578H91.7905C92.3239 7.17517 93.0153 6.51986 93.865 6.10941C94.7144 5.69942 95.5842 5.4939 96.4732 5.4939C97.5996 5.4939 98.5229 5.64916 99.2444 5.95924C99.9654 6.26976 100.534 6.69995 100.949 7.2501C101.364 7.80085 101.655 8.47112 101.823 9.26164C101.991 10.0525 102.075 10.9278 102.075 11.8884V21.4351H97.8663V12.6689C97.8663 11.3885 97.6684 10.4324 97.2736 9.80192C96.8781 9.17145 96.1769 8.85629 95.1692 8.85629C94.023 8.85629 93.1931 9.20151 92.6794 9.89197C92.1655 10.5826 91.9089 11.7185 91.9089 13.2995V21.4351H87.7002V5.91422H91.7016Z" fill="#F9F5F0"/>
<path d="M113.693 5.91424V8.76626H110.611V16.4518C110.611 17.1722 110.729 17.6526 110.966 17.8925C111.203 18.1328 111.678 18.253 112.389 18.253C112.626 18.253 112.853 18.2431 113.071 18.2228C113.288 18.2031 113.495 18.1731 113.693 18.1328V21.4352C113.338 21.4953 112.942 21.5351 112.508 21.5551C112.073 21.5749 111.648 21.5853 111.233 21.5853C110.581 21.5853 109.963 21.5402 109.381 21.4501C108.798 21.3601 108.284 21.1851 107.839 20.9248C107.395 20.6648 107.044 20.2945 106.787 19.814C106.53 19.3336 106.402 18.7032 106.402 17.9227V8.76626H103.853V5.91424H106.402V1.26099H110.611V5.91424H113.693Z" fill="#F9F5F0"/>
<path d="M115.797 10.3124C116.172 9.30188 116.706 8.4412 117.398 7.73055C118.089 7.02035 118.919 6.4696 119.887 6.07935C120.855 5.68909 121.942 5.4939 123.147 5.4939C124.352 5.4939 125.445 5.6891 126.423 6.07935C127.401 6.4696 128.235 7.02035 128.927 7.73055C129.618 8.4412 130.152 9.30188 130.528 10.3124C130.903 11.3233 131.091 12.449 131.091 13.6896C131.091 14.9308 130.903 16.0515 130.528 17.0522C130.152 18.0531 129.618 18.9087 128.927 19.6189C128.235 20.3294 127.401 20.8751 126.423 21.255C125.445 21.635 124.352 21.8255 123.147 21.8255C121.942 21.8255 120.855 21.635 119.887 21.255C118.919 20.8751 118.089 20.3294 117.398 19.6189C116.706 18.9087 116.172 18.0531 115.797 17.0522C115.421 16.0515 115.234 14.9308 115.234 13.6896C115.234 12.449 115.421 11.3233 115.797 10.3124ZM119.62 15.5058C119.739 16.0967 119.941 16.6271 120.228 17.097C120.514 17.5676 120.895 17.9428 121.369 18.2228C121.843 18.5034 122.436 18.6431 123.147 18.6431C123.859 18.6431 124.456 18.5034 124.941 18.2228C125.425 17.9428 125.81 17.5676 126.096 17.097C126.383 16.6271 126.586 16.0967 126.704 15.5058C126.823 14.9159 126.882 14.3104 126.882 13.6896C126.882 13.0695 126.823 12.4589 126.704 11.8585C126.586 11.2581 126.383 10.728 126.096 10.2673C125.81 9.80716 125.425 9.43186 124.941 9.14153C124.456 8.85164 123.859 8.70625 123.147 8.70625C122.436 8.70625 121.843 8.85164 121.369 9.14153C120.895 9.43186 120.514 9.80716 120.228 10.2673C119.941 10.728 119.739 11.2581 119.62 11.8585C119.502 12.4589 119.443 13.0695 119.443 13.6896C119.443 14.3104 119.502 14.9159 119.62 15.5058Z" fill="#F9F5F0"/>
<path d="M130.577 2.23146V1.26099H134.823V2.23146H133.27V6.51031H132.13V2.23146H130.577Z" fill="#F9F5F0"/>
<path d="M137.022 1.26099L138.234 4.87093H138.249L139.396 1.26099H141V6.51031H139.933V2.79028H139.918L138.648 6.51031H137.77L136.5 2.82678H136.485V6.51031H135.418V1.26099H137.022H137.022Z" fill="#F9F5F0"/>
<path d="M7.45456 49.6917C7.38397 49.9067 5.47307 56 2.14658 56C0.518924 56 0 55.1399 0 54.6379C0 54.0884 0.400787 53.5388 0.990593 53.5388C1.67491 53.5388 1.95785 54.1602 2.00511 54.4946C2.07599 54.9727 2.31168 55.1875 2.59492 55.1875C4.29346 55.1875 5.44945 51.2449 6.51092 48.1624L8.09162 43.5269C8.23309 43.1446 8.30397 42.8098 8.30397 42.5947C8.30397 42.356 8.23309 42.2363 8.04436 42.2363C7.64328 42.2363 6.53455 43.24 6.25161 43.5269C6.18072 43.5984 6.10984 43.5745 6.06259 43.5269L5.8269 43.2639C5.77964 43.2161 5.75601 43.1446 5.80327 43.0728C6.18073 42.6426 8.35094 40.5637 9.90801 40.5637C10.2855 40.5637 10.4036 40.8506 10.4036 41.0179C10.4036 41.6628 9.60144 43.9092 9.27124 44.8172L7.45456 49.6916V49.6917ZM9.29457 36.2864C9.29457 35.6414 9.76653 34.9482 10.6393 34.9482C11.5123 34.9482 11.8189 35.689 11.8189 36.1191C11.8189 36.8599 11.1818 37.3619 10.5687 37.3619C9.81379 37.3619 9.29457 36.8359 9.29457 36.2864V36.2864Z" fill="#F9F5F0"/>
<path d="M11.7008 47.6606C11.7008 44.6499 13.9419 40.5637 17.0794 40.5637C18.6601 40.5637 19.6037 41.7346 19.6037 43.3594C19.6037 45.9881 17.551 50.7432 14.1306 50.7432C12.8332 50.7432 11.7008 49.4765 11.7008 47.6607V47.6606ZM18.6601 43.001C18.6834 42.2602 18.259 41.6628 17.4804 41.6628C16.4896 41.6628 15.2394 42.5708 14.0597 44.5063C13.2576 45.7969 12.6914 47.2544 12.6914 48.3774C12.6914 49.1421 13.2106 49.5962 13.7765 49.5962C16.2302 49.5962 18.6601 44.5781 18.6601 43.001Z" fill="#F9F5F0"/>
<path d="M31.0445 40.8028C31.2568 40.8028 31.3038 40.8743 31.2568 41.0178L29.4402 45.9881C28.7561 47.8518 28.4493 48.9509 28.4493 49.0942C28.4493 49.3093 28.4729 49.3093 28.638 49.3811C28.9921 49.3811 30.2896 48.1863 30.4783 47.8997C30.5253 47.8279 30.6198 47.8039 30.6904 47.8997L30.9263 48.1384C30.9972 48.2102 30.9972 48.2581 30.9263 48.3535C30.8558 48.4492 28.6616 50.7432 27.034 50.7432C26.7038 50.7432 26.5856 50.4802 26.5856 50.1936C26.5856 49.9067 27.7889 46.9199 28.0954 46.1074L27.954 46.0356C26.9631 47.4934 24.4627 50.7432 22.1271 50.7432C21.6551 50.7432 21.2777 50.3369 21.254 49.7634C21.2777 48.9988 22.0089 47.5174 22.9292 45.2949C23.5424 43.8135 24.0852 42.6904 24.0852 42.2603C24.0852 42.0452 23.9198 41.9258 23.7078 41.9258C23.2831 41.9258 22.1034 43.001 21.8675 43.2879C21.7969 43.3594 21.726 43.3594 21.6551 43.2879L21.4431 43.0728C21.3722 43.0249 21.3722 42.9531 21.4664 42.8577C21.6315 42.6426 23.5896 40.5637 25.0994 40.5637C25.5714 40.5637 25.7835 41.0415 25.7835 41.4238C25.7835 42.0212 25.2176 43.4312 24.2503 45.5579C23.6133 46.9678 22.9998 48.4971 22.9998 49.0227C22.9998 49.2854 23.1649 49.429 23.4009 49.429C24.6511 49.429 27.1518 46.2986 27.8361 45.2949C28.2842 44.626 28.6616 43.9807 28.9212 43.2639L29.747 40.97C29.794 40.8267 29.9121 40.8028 30.0772 40.8028H31.0445H31.0445Z" fill="#F9F5F0"/>
<path d="M32.837 50.5041C32.6716 50.5041 32.5774 50.4087 32.6246 50.2891L33.9457 46.4179C34.3704 45.0798 35.1017 42.5708 35.1017 42.2363C35.1017 42.0212 34.913 41.8779 34.7006 41.8779C34.2287 41.8779 33.1672 42.9531 32.837 43.3594C32.7897 43.4312 32.6952 43.4072 32.6483 43.3594L32.4123 43.1206C32.365 43.0728 32.365 43.001 32.4123 42.9295C32.9076 42.1884 34.3232 40.5637 35.9272 40.5637C36.3992 40.5637 36.5879 40.97 36.5879 41.4002C36.6115 41.854 36.2104 43.1921 35.7385 44.7932L35.8566 44.8411C36.4934 43.503 38.3806 40.5637 39.7017 40.5637C40.3861 40.5637 40.8105 40.9939 40.8105 41.6389C40.8105 42.2602 40.3388 42.7383 39.8905 42.7383C39.6781 42.7383 39.4894 42.6904 39.3006 42.4993C39.1119 42.3081 38.9941 42.2124 38.6875 42.2124C38.0504 42.2124 36.7294 44.2676 35.7857 45.8445C35.5028 46.2986 35.2195 46.8481 34.8657 47.9233L34.0872 50.3369C34.0399 50.5042 33.9693 50.5042 33.7806 50.5042H32.837L32.837 50.5041Z" fill="#F9F5F0"/>
<path d="M41.5881 50.5041C41.3285 50.5041 41.2815 50.4563 41.3285 50.289L43.0034 45.8684C43.5699 44.387 44.2303 42.6665 44.2303 42.2602C44.2303 42.0212 44.1357 41.854 43.8764 41.854C43.4281 41.854 42.2957 43.001 41.8946 43.4551C41.8241 43.5269 41.7532 43.5269 41.659 43.4312L41.4466 43.2161C41.3521 43.1206 41.3285 43.0728 41.3994 42.977C41.7532 42.5471 43.499 40.5637 45.1975 40.5637C45.7401 40.5637 45.9524 40.97 45.9524 41.2805C45.9524 42.0212 44.9379 44.2915 44.7492 44.8411L44.8437 44.8886C45.5513 43.7417 48.1226 40.5637 50.2222 40.5637C50.9299 40.5637 51.4019 40.9221 51.4019 41.5435C51.4019 42.5947 50.8593 43.8374 50.0808 45.773C49.4437 47.3501 48.8775 48.688 48.8775 49.0703C48.8775 49.2139 48.972 49.3811 49.1608 49.3811C49.5146 49.3811 50.5524 48.4971 50.8593 48.1623C50.9535 48.0908 51.048 48.1148 51.1189 48.2102L51.284 48.4014C51.3782 48.4971 51.4019 48.5447 51.3074 48.6643C51.0244 49.0466 49.1135 50.7432 47.5328 50.7432C47.2262 50.7432 46.9669 50.6235 46.9669 50.2651C46.9669 49.8113 47.8161 47.9233 48.5473 45.8684C48.8775 44.9365 49.727 42.9531 49.727 42.4275C49.727 42.093 49.5619 41.8779 49.1371 41.8779C48.2171 41.8779 45.8815 44.0764 44.8437 45.773C44.419 46.4658 44.0415 47.0872 43.4281 48.7597L42.8383 50.3608C42.7913 50.4563 42.7441 50.5041 42.5081 50.5041H41.5881L41.5881 50.5041Z" fill="#F9F5F0"/>
<path d="M62.8667 40.5637C62.9612 40.5637 62.9848 40.6831 62.9376 40.7788C62.4892 41.7586 61.286 45.0562 61.1681 45.4385C61.0267 45.8445 60.0358 48.8076 60.0358 49.0227C60.0358 49.2378 60.1536 49.3093 60.2954 49.3093C60.5783 49.3093 61.7816 48.0669 61.9467 47.8518C62.0176 47.78 62.0882 47.7324 62.1354 47.8039L62.3478 48.043C62.4184 48.1148 62.442 48.1623 62.395 48.2341C62.1354 48.7119 60.083 50.7432 58.7383 50.7432C58.4554 50.7432 58.243 50.6474 58.243 50.3369C58.243 49.9785 58.4787 49.2378 59.3754 46.7048L59.2573 46.657C58.2664 48.1863 55.8838 50.7432 54.2089 50.7432C53.6663 50.7432 52.9351 50.2891 52.9351 49.2139C52.9351 45.7251 56.8038 40.5637 59.682 40.5637C60.6729 40.5637 61.1209 40.9939 61.3569 41.3762L61.8052 40.731C61.8758 40.6355 61.9467 40.5637 62.0409 40.5637H62.8667ZM59.8943 44.7214C60.2245 44.0286 60.4605 43.4312 60.4605 42.7383C60.4605 42.093 60.2245 41.3284 59.3518 41.3284C57.1813 41.3284 54.6572 46.3704 54.6572 48.6404C54.6572 49.1899 54.8929 49.4765 55.294 49.4765C56.4736 49.4765 59.4696 45.6057 59.8943 44.7214Z" fill="#F9F5F0"/>
<path d="M68.693 36.6926C69.0468 35.7847 69.0232 35.1873 68.3392 35.1873H67.6552C67.4901 35.1873 67.4664 35.0918 67.5134 34.9722L67.6552 34.542C67.7021 34.3987 67.7494 34.3748 67.8908 34.3748H70.8163C71.0286 34.3748 71.0992 34.5184 71.0286 34.7334L66.1217 47.3738C65.9094 47.9233 65.3432 49.2378 65.8385 49.2378C66.2159 49.2378 67.301 48.3057 67.5843 47.9951C67.6785 47.8997 67.7257 47.9233 67.7966 47.9951L68.0559 48.282C68.1032 48.3296 68.1268 48.4253 68.0326 48.5207C67.9145 48.7119 65.7206 50.7432 64.2108 50.7432C63.904 50.7432 63.6919 50.5996 63.6919 50.05C63.6919 49.6917 64.2814 48.1863 64.5646 47.4695L68.693 36.6926V36.6926Z" fill="#F9F5F0"/>
</g>
<defs>
<clipPath id="clip0_234_1304">
<rect width="141" height="56" fill="white"/>
</clipPath>
</defs>
</svg>
